<svg width="30" height="30" viewBox="0 0 30 30" fill="none" xmlns="http://www.w3.org/2000/svg">
    <path fill-rule="evenodd" clip-rule="evenodd" d="M.01 15.018c-.133 6.258 4.267 12.231 10.32 14.18 5.7 1.876 12.709.472 16.502-4.312 2.77-3.352 3.4-7.82 3.1-11.994-4.883-.043-9.765-.028-14.64-.022-.007 1.704 0 3.402.008 5.106 2.923.08 5.847.043 8.77.1-.738 2.478-2.419 4.784-4.97 5.678-4.926 2.127-11.211-.65-12.76-5.714C4.467 13.192 7.53 7.342 12.587 5.932c3.135-1.08 6.366.137 9.048 1.733 1.36-1.245 2.632-2.578 3.882-3.924-3.05-2.5-6.966-4.032-10.993-3.695C6.624.138-.291 7.284.009 15.018z" fill="#19191D"/>
</svg>
