<svg width="30" height="30" viewBox="0 0 30 30" fill="none" xmlns="http://www.w3.org/2000/svg">
    <path fill-rule="evenodd" clip-rule="evenodd" d="M14.975.047c4.068 0 4.578.017 6.175.09 1.595.073 2.683.326 3.636.696a7.34 7.34 0 0 1 2.652 1.728 7.34 7.34 0 0 1 1.729 2.651c.37.953.622 2.042.696 3.636.073 1.598.09 2.108.09 6.174 0 4.068-.017 4.578-.09 6.175-.073 1.594-.326 2.683-.696 3.636a7.34 7.34 0 0 1-1.728 2.652 7.34 7.34 0 0 1-2.652 1.728c-.953.37-2.042.622-3.636.696-1.598.073-2.108.09-6.175.09s-4.577-.017-6.174-.09c-1.595-.073-2.683-.326-3.636-.696a7.34 7.34 0 0 1-2.652-1.728 7.34 7.34 0 0 1-1.728-2.652C.416 23.88.163 22.79.09 21.197.017 19.599 0 19.089 0 15.022s.017-4.577.09-6.174c.073-1.594.326-2.683.696-3.636A7.34 7.34 0 0 1 2.514 2.56 7.34 7.34 0 0 1 5.165.832C6.118.463 7.207.21 8.801.137 10.4.064 10.91.047 14.975.047zm0 2.698c-3.998 0-4.472.015-6.05.087-1.461.068-2.255.312-2.782.516a4.632 4.632 0 0 0-1.722 1.12 4.632 4.632 0 0 0-1.12 1.723c-.205.527-.45 1.32-.516 2.78-.072 1.58-.087 2.054-.087 6.053 0 3.998.015 4.472.087 6.05.067 1.46.311 2.254.516 2.782a4.632 4.632 0 0 0 1.12 1.722 4.623 4.623 0 0 0 1.722 1.12c.527.206 1.32.45 2.781.516 1.579.072 2.052.087 6.051.087 4 0 4.473-.015 6.053-.087 1.46-.067 2.253-.31 2.78-.516a4.631 4.631 0 0 0 1.722-1.12 4.623 4.623 0 0 0 1.12-1.722c.205-.528.45-1.32.517-2.781.071-1.58.086-2.053.086-6.052 0-3.998-.015-4.472-.087-6.052-.067-1.46-.31-2.253-.515-2.78a4.631 4.631 0 0 0-1.121-1.722 4.623 4.623 0 0 0-1.722-1.12c-.527-.205-1.32-.45-2.781-.517-1.579-.072-2.053-.087-6.052-.087zm4.993 12.278a4.992 4.992 0 1 1-9.985 0 4.992 4.992 0 0 1 9.985 0zm-4.993-7.69a7.69 7.69 0 0 1 7.69 7.69 7.69 7.69 0 1 1-15.38 0 7.69 7.69 0 0 1 7.69-7.69zm7.995 1.493a1.797 1.797 0 1 0 0-3.595 1.797 1.797 0 0 0 0 3.595z" fill="#19191D"/>
</svg>
