<svg width="38" height="30" viewBox="0 0 38 30" fill="none" xmlns="http://www.w3.org/2000/svg">
    <path fill-rule="evenodd" clip-rule="evenodd" d="M36.953.554a15.816 15.816 0 0 1-4.952 1.838A7.9 7.9 0 0 0 26.31 0c-4.307 0-7.798 3.392-7.798 7.576 0 .59.07 1.172.205 1.725-6.246-.293-12.08-3.165-16.072-7.914a7.395 7.395 0 0 0-1.053 3.806c0 2.629 1.372 4.948 3.467 6.306a7.957 7.957 0 0 1-3.534-.947v.097c0 3.67 2.688 6.729 6.254 7.426a8.167 8.167 0 0 1-3.52.128c.994 3.013 3.873 5.199 7.281 5.258a15.941 15.941 0 0 1-9.68 3.244c-.63 0-1.254-.036-1.861-.106A22.554 22.554 0 0 0 11.951 30c14.342 0 22.184-11.538 22.184-21.551a23.9 23.9 0 0 0-.024-.977A15.478 15.478 0 0 0 38 3.548a15.88 15.88 0 0 1-4.48 1.195A7.625 7.625 0 0 0 36.954.554z" fill="#19191D"/>
</svg>
