<svg width="42" height="30" viewBox="0 0 42 30" fill="none" xmlns="http://www.w3.org/2000/svg">
    <path fill-rule="evenodd" clip-rule="evenodd" d="M41.747 8.28c.117 1.287.184 2.353.199 3.195.016.842.023 2.012.023 3.51 0 1.498-.008 2.668-.023 3.51a46.193 46.193 0 0 1-.199 3.195 25.905 25.905 0 0 1-.527 3.452 5.473 5.473 0 0 1-1.616 2.878 4.941 4.941 0 0 1-2.904 1.358c-3.467.39-8.705.585-15.715.585-7.011 0-12.249-.195-15.715-.585-1.109-.125-2.08-.578-2.916-1.358a5.438 5.438 0 0 1-1.628-2.878 28.925 28.925 0 0 1-.504-3.452 45.871 45.871 0 0 1-.198-3.194C.008 17.653 0 16.483 0 14.986c0-1.499.008-2.669.024-3.511.015-.843.081-1.908.198-3.194C.34 6.993.515 5.843.75 4.829A5.472 5.472 0 0 1 2.365 1.95 4.94 4.94 0 0 1 5.27.593C8.736.203 13.974.008 20.985.008c7.01 0 12.248.195 15.715.585 1.108.125 2.08.577 2.916 1.357a5.441 5.441 0 0 1 1.627 2.879c.219 1.013.387 2.164.504 3.452zM17.285 23.739l11.99-7.489c.469-.265.703-.687.703-1.264s-.234-.998-.702-1.263L17.285 6.233c-.485-.312-.992-.328-1.523-.046-.515.28-.773.717-.773 1.31v14.977c0 .593.258 1.03.773 1.31.25.125.492.187.726.187.312 0 .578-.078.797-.233z" fill="#19191D"/>
</svg>
