<svg width="132" height="40" viewBox="0 0 132 40" fill="none" xmlns="http://www.w3.org/2000/svg">
    <path d="M55.825 35.333H51.92v-24h3.904v2.032a6.296 6.296 0 0 1 1.92-1.76c.768-.458 1.664-.688 2.688-.688a8.19 8.19 0 0 1 3.28.656 8.38 8.38 0 0 1 2.672 1.824 8.17 8.17 0 0 1 1.808 2.672 8.149 8.149 0 0 1 .656 3.264 8.263 8.263 0 0 1-.656 3.28 8.304 8.304 0 0 1-1.808 2.704 8.511 8.511 0 0 1-2.672 1.808 8.19 8.19 0 0 1-3.28.656c-1.024 0-1.92-.224-2.688-.672a6.487 6.487 0 0 1-1.92-1.776v10zm4.56-20.656c-.811 0-1.536.214-2.176.64a4.324 4.324 0 0 0-1.504 1.68c-.363.704-.544 1.483-.544 2.336 0 .854.18 1.638.544 2.352.362.704.864 1.27 1.504 1.696.64.416 1.365.624 2.176.624.82 0 1.573-.208 2.256-.624a4.652 4.652 0 0 0 2.24-4.048c0-.853-.203-1.632-.608-2.336a4.652 4.652 0 0 0-1.632-1.68 4.12 4.12 0 0 0-2.256-.64zM70.983 11.333h3.904v16h-3.904v-16zm1.984-2.064c-.576 0-1.061-.186-1.456-.56-.395-.384-.592-.864-.592-1.44 0-.565.197-1.04.592-1.424a1.988 1.988 0 0 1 1.44-.576c.565 0 1.04.192 1.424.576.395.384.592.859.592 1.424 0 .576-.192 1.056-.576 1.44-.384.374-.859.56-1.424.56zM93.264 17.221v10.112H89.36v-9.088c0-.629-.155-1.2-.464-1.712a3.373 3.373 0 0 0-1.248-1.232 3.247 3.247 0 0 0-1.712-.464 3.33 3.33 0 0 0-1.728.464 3.41 3.41 0 0 0-1.232 1.232 3.335 3.335 0 0 0-.448 1.712v9.088h-3.904l-.016-16h3.904l.016 1.424a5.896 5.896 0 0 1 1.952-1.36 5.888 5.888 0 0 1 2.448-.512c1.163 0 2.224.288 3.184.864a6.358 6.358 0 0 1 2.288 2.288c.576.95.864 2.011.864 3.184zM108.011 11.333h3.904v16.304c0 1.152-.234 2.198-.704 3.136a7.352 7.352 0 0 1-1.92 2.432 8.696 8.696 0 0 1-2.784 1.568 9.725 9.725 0 0 1-3.296.56 7.89 7.89 0 0 1-3.232-.688 9.042 9.042 0 0 1-2.752-1.888 8.192 8.192 0 0 1-1.808-2.704l3.568-1.616c.214.587.534 1.099.96 1.536.438.448.939.795 1.504 1.04a4.224 4.224 0 0 0 1.76.384c.619 0 1.211-.085 1.776-.256a5.108 5.108 0 0 0 1.552-.752c.459-.32.816-.714 1.072-1.184.267-.458.4-.981.4-1.568v-2.256a5.918 5.918 0 0 1-1.888 1.712c-.757.438-1.632.656-2.624.656a7.997 7.997 0 0 1-3.232-.656 8.567 8.567 0 0 1-2.656-1.808 8.852 8.852 0 0 1-1.792-2.688 8.325 8.325 0 0 1-.64-3.264c0-1.162.214-2.25.64-3.264a8.651 8.651 0 0 1 1.792-2.672 8.434 8.434 0 0 1 2.656-1.824 7.997 7.997 0 0 1 3.232-.656c.992 0 1.867.219 2.624.656a5.75 5.75 0 0 1 1.888 1.696v-1.936zm-4.464 12.656c.822 0 1.547-.208 2.176-.624a4.443 4.443 0 0 0 1.504-1.696 5.083 5.083 0 0 0 .544-2.336c0-.853-.186-1.632-.56-2.336a4.443 4.443 0 0 0-1.504-1.696c-.629-.426-1.349-.64-2.16-.64-.8 0-1.53.214-2.192.64a4.614 4.614 0 0 0-1.584 1.68c-.394.704-.592 1.488-.592 2.352 0 .864.198 1.648.592 2.352a4.614 4.614 0 0 0 1.584 1.68 4.036 4.036 0 0 0 2.192.624zM127.453 11.333h3.904v16h-3.904l-.176-1.984a5.234 5.234 0 0 1-1.744 1.744c-.714.438-1.562.656-2.544.656a8.286 8.286 0 0 1-3.328-.672 8.765 8.765 0 0 1-2.736-1.856 8.898 8.898 0 0 1-1.84-2.736 8.465 8.465 0 0 1-.656-3.328c0-1.141.208-2.213.624-3.216a8.34 8.34 0 0 1 4.4-4.416 8.013 8.013 0 0 1 3.2-.64c1.056 0 2 .235 2.832.704a7.272 7.272 0 0 1 2.144 1.792l-.176-2.048zm-4.56 12.656c.832 0 1.568-.208 2.208-.624a4.32 4.32 0 0 0 1.504-1.68 5.118 5.118 0 0 0 .544-2.352c0-.864-.181-1.648-.544-2.352a4.248 4.248 0 0 0-1.52-1.696c-.64-.416-1.37-.624-2.192-.624-.821 0-1.573.214-2.256.64a4.701 4.701 0 0 0-1.616 1.68c-.394.704-.592 1.488-.592 2.352 0 .864.203 1.648.608 2.352a4.701 4.701 0 0 0 1.616 1.68c.683.416 1.43.624 2.24.624z" fill="#19191D"/>
    <mask id="i1y4a5ztla" style="mask-type:alpha" maskUnits="userSpaceOnUse" x="0" y="0" width="40" height="40">
        <rect width="40" height="40" rx="20" fill="#fff"/>
    </mask>
    <g filter="url(#pip5x2auwb)" mask="url(#i1y4a5ztla)">
        <path d="M40.491 28.77c0 6.627-5.372 12-12 12-6.627 0-12-5.373-12-12 0-6.628 5.373-12 12-12 6.628 0 12 5.372 12 12z" fill="#C70097"/>
        <path d="M44 18.48c0 6.627-5.373 12-12 12s-12-5.373-12-12c0-6.628 5.373-12 12-12s12 5.372 12 12z" fill="#2F43BB"/>
        <path d="M38.3 9.416c0 6.628-5.372 12-12 12-6.627 0-12-5.372-12-12 0-6.627 5.373-12 12-12 6.628 0 12 5.373 12 12z" fill="#ED0156"/>
        <path d="M28.491 8c0 6.627-5.372 12-12 12-6.627 0-12-5.373-12-12s5.373-12 12-12c6.628 0 12 5.373 12 12z" fill="#FFBD4A"/>
        <path d="M20 16.432c0 6.627-5.373 12-12 12s-12-5.373-12-12c0-6.628 5.373-12 12-12s12 5.372 12 12z" fill="#FF7C52"/>
        <path d="M20.683 25.812c0 6.628-5.373 12-12 12-6.628 0-12-5.372-12-12 0-6.627 5.372-12 12-12 6.627 0 12 5.373 12 12z" fill="#3ABEAA"/>
        <path d="M30.038 32c0 6.627-5.372 12-12 12-6.627 0-12-5.373-12-12s5.373-12 12-12c6.628 0 12 5.373 12 12z" fill="#5B25B3"/>
    </g>
    <defs>
        <filter id="pip5x2auwb" x="-16" y="-16" width="72" height="72" filterUnits="userSpaceOnUse" color-interpolation-filters="sRGB">
            <feFlood flood-opacity="0" result="BackgroundImageFix"/>
            <feBlend in="SourceGraphic" in2="BackgroundImageFix" result="shape"/>
            <feGaussianBlur stdDeviation="6" result="effect1_foregroundBlur_137_608"/>
        </filter>
    </defs>
</svg>
