<svg width="81" height="31" viewBox="0 0 81 31" fill="none" xmlns="http://www.w3.org/2000/svg">
    <path d="M4.824 31H.92V7h3.904v2.032a6.298 6.298 0 0 1 1.92-1.76c.768-.459 1.664-.688 2.688-.688 1.173 0 2.267.219 3.28.656a8.381 8.381 0 0 1 2.672 1.824 8.168 8.168 0 0 1 1.808 2.672A8.149 8.149 0 0 1 17.848 15a8.263 8.263 0 0 1-.656 3.28 8.302 8.302 0 0 1-1.808 2.704 8.511 8.511 0 0 1-2.672 1.808 8.189 8.189 0 0 1-3.28.656c-1.024 0-1.92-.224-2.688-.672A6.489 6.489 0 0 1 4.824 21v10zm4.56-20.656c-.81 0-1.536.213-2.176.64a4.325 4.325 0 0 0-1.504 1.68c-.363.704-.544 1.483-.544 2.336 0 .853.181 1.637.544 2.352.363.704.864 1.27 1.504 1.696.64.416 1.365.624 2.176.624.821 0 1.573-.208 2.256-.624A4.65 4.65 0 0 0 13.88 15c0-.853-.203-1.632-.608-2.336a4.65 4.65 0 0 0-1.632-1.68 4.12 4.12 0 0 0-2.256-.64zM19.983 7h3.904v16h-3.904V7zm1.983-2.064c-.576 0-1.06-.187-1.456-.56-.394-.384-.591-.864-.591-1.44 0-.565.197-1.04.591-1.424a1.988 1.988 0 0 1 1.44-.576c.566 0 1.04.192 1.425.576.394.384.591.859.591 1.424 0 .576-.192 1.056-.576 1.44-.384.373-.858.56-1.424.56zm20.297 7.952V23H38.36v-9.088c0-.63-.154-1.2-.464-1.712a3.372 3.372 0 0 0-1.248-1.232 3.247 3.247 0 0 0-1.712-.464 3.33 3.33 0 0 0-1.727.464 3.41 3.41 0 0 0-1.232 1.232 3.335 3.335 0 0 0-.448 1.712V23h-3.904l-.016-16h3.904l.015 1.424a5.897 5.897 0 0 1 1.953-1.36 5.888 5.888 0 0 1 2.448-.512c1.162 0 2.224.288 3.184.864A6.357 6.357 0 0 1 41.4 9.704c.575.95.864 2.01.864 3.184zM57.011 7h3.904v16.304c0 1.152-.235 2.197-.704 3.136-.47.95-1.11 1.76-1.92 2.432a8.711 8.711 0 0 1-2.784 1.568 9.727 9.727 0 0 1-3.296.56 7.89 7.89 0 0 1-3.232-.688 9.041 9.041 0 0 1-2.752-1.888 8.19 8.19 0 0 1-1.808-2.704l3.568-1.616c.213.587.533 1.099.96 1.536.437.448.938.795 1.504 1.04a4.221 4.221 0 0 0 1.76.384c.618 0 1.21-.085 1.776-.256a5.116 5.116 0 0 0 1.552-.752c.458-.32.816-.715 1.072-1.184.266-.459.4-.981.4-1.568v-2.256a5.93 5.93 0 0 1-1.888 1.712c-.758.437-1.632.656-2.624.656a7.995 7.995 0 0 1-3.232-.656 8.563 8.563 0 0 1-2.656-1.808 8.849 8.849 0 0 1-1.792-2.688 8.324 8.324 0 0 1-.64-3.264c0-1.163.213-2.25.64-3.264a8.648 8.648 0 0 1 1.792-2.672 8.431 8.431 0 0 1 2.656-1.824 7.995 7.995 0 0 1 3.232-.656c.992 0 1.866.219 2.624.656a5.76 5.76 0 0 1 1.888 1.696V7zm-4.464 12.656c.821 0 1.546-.208 2.176-.624a4.449 4.449 0 0 0 1.504-1.696A5.088 5.088 0 0 0 56.77 15c0-.853-.187-1.632-.56-2.336a4.449 4.449 0 0 0-1.504-1.696c-.63-.427-1.35-.64-2.16-.64-.8 0-1.53.213-2.192.64a4.61 4.61 0 0 0-1.584 1.68c-.395.704-.592 1.488-.592 2.352 0 .864.197 1.648.592 2.352a4.61 4.61 0 0 0 1.584 1.68 4.034 4.034 0 0 0 2.192.624zM76.453 7h3.904v16h-3.904l-.176-1.984a5.244 5.244 0 0 1-1.744 1.744c-.715.437-1.563.656-2.544.656a8.284 8.284 0 0 1-3.328-.672 8.75 8.75 0 0 1-2.736-1.856 8.886 8.886 0 0 1-1.84-2.736 8.458 8.458 0 0 1-.656-3.328c0-1.141.208-2.213.624-3.216a8.331 8.331 0 0 1 4.4-4.416 8.012 8.012 0 0 1 3.2-.64c1.056 0 2 .235 2.832.704a7.286 7.286 0 0 1 2.144 1.792L76.453 7zm-4.56 12.656c.832 0 1.568-.208 2.208-.624a4.325 4.325 0 0 0 1.504-1.68A5.123 5.123 0 0 0 76.149 15c0-.864-.182-1.648-.544-2.352a4.256 4.256 0 0 0-1.52-1.696c-.64-.416-1.37-.624-2.192-.624-.822 0-1.574.213-2.256.64a4.695 4.695 0 0 0-1.616 1.68c-.395.704-.592 1.488-.592 2.352 0 .864.202 1.648.608 2.352a4.695 4.695 0 0 0 1.616 1.68c.682.416 1.43.624 2.24.624z" fill="#5B25B3"/>
</svg>
